<?xml version="1.0" encoding="utf-8"?>
<!-- Generator: Adobe Illustrator 19.0.0, SVG Export Plug-In . SVG Version: 6.00 Build 0)  -->
<svg version="1.1" id="Layer_1" xmlns="http://www.w3.org/2000/svg" xmlns:xlink="http://www.w3.org/1999/xlink" x="0px" y="0px"
	 viewBox="0 0 1000 700" style="enable-background:new 0 0 1000 700;" xml:space="preserve">
<style type="text/css">
	.st0{fill:#1C75BC;}
	.st1{fill:#00A14B;}
	.st2{fill:#F26522;}
	.st3{clip-path:url(#XMLID_29_);}
	.st4{fill:none;}
	.st5{fill:none;stroke:#00A14B;stroke-width:3.9728;stroke-miterlimit:10;}
	.st6{fill:#FFFFFF;}
</style>
<g id="XMLID_490_">
	<g id="XMLID_491_">
		<g id="XMLID_493_">
			<g id="XMLID_494_">
				<path id="XMLID_803_" class="st0" d="M136,308.4c-7.8,3.5-16.3,4.1-24.5,4.3l-1.1,0c-6.7,0.2-13.1,0.4-17.6,2.5
					c-3.4,1.6-12.7,9.1-10.6,17.4c1.2,4.7-0.8,9.6-4.9,12.1c-1,0.6-2,1-3.1,1.3c-2.9,0.7-5.9,0.3-8.4-1.3c-2.5-1.5-4.3-3.9-5-6.8
					c-5.2-20.8,11.1-37.3,22.6-42.7c8.7-4.1,18.1-4.4,26.4-4.6l1,0c7-0.2,13.2-0.6,17.3-3.1c3.8-2.2,6.5-7,7.6-12.9L136,308.4z"/>
				<path id="XMLID_802_" class="st0" d="M136.4,374.4c-2.3,0.4-4.4,0.9-6.2,1.7c-3.4,1.6-12.7,9.1-10.7,17.4
					c1.2,4.7-0.8,9.6-4.9,12.1c-1,0.6-2,1-3.1,1.3c-5.9,1.5-11.9-2.2-13.4-8.1c-5.2-20.8,11.1-37.3,22.6-42.7
					c5.1-2.4,10.4-3.5,15.5-4L136.4,374.4z"/>
				<path id="XMLID_801_" class="st0" d="M158.3,445.9c-1.4,2.5-2.1,5.4-1.4,8.4c1.2,4.7-0.8,9.6-4.9,12.1c-1,0.6-2,1-3.1,1.3
					c-2.9,0.7-5.8,0.3-8.4-1.2c-2.5-1.5-4.3-3.9-5-6.8c-2.9-11.5,0.8-21.7,6.7-29.4C145.9,436.9,151.5,442.3,158.3,445.9
					L158.3,445.9z"/>
				<g id="XMLID_795_">
					<path id="XMLID_797_" class="st1" d="M465.1,287.4l-119.8-71.8c-3.4-2-7.1-3-10.8-3c-7.1,0-14.1,3.6-18.1,10.2L205.3,408.4
						c-5.9,9.9-2.7,22.9,7.2,28.8L332.3,509c4.8,2.9,10.5,3.7,15.9,2.4c5.5-1.4,10-4.8,12.9-9.6l111.1-185.5
						C478.3,306.2,475,293.3,465.1,287.4z M321.1,391.9L271.5,322l85,10.7l49.5,69.9L321.1,391.9z"/>
					<path id="XMLID_796_" class="st2" d="M336.6,192.8v0.3c-4-0.2-8,0.2-12,1.2c-10.5,2.6-19.4,9.2-24.9,18.5l-19.5,32.6l-81.5,0.5
						c-12,0.1-21.8,10-21.7,22c0.1,12,10,21.8,22,21.7l55-0.3l-15.3,25.6L199,315c-12,0.1-21.8,9.9-21.7,22c0.1,12,10,21.8,22,21.7
						l13.1-0.1l-23.8,39.7c-6.1,10.2-7.2,22.1-4,32.7l-7.3,0c-5.6,0-10.9-2.1-14.9-6.1c-4-3.9-6.2-9.2-6.2-14.8l-1.3-216.2
						c-0.1-11.6,9.3-21.1,20.9-21.2l139.7-0.8h0.1C327.1,171.9,336.5,181.3,336.6,192.8z"/>
				</g>
				<g id="XMLID_757_">
					<defs>
						<line id="XMLID_758_" x1="323.2" y1="388.4" x2="398.1" y2="397.8"/>
					</defs>
					<clipPath id="XMLID_29_">
						<use xlink:href="#XMLID_758_"  style="overflow:visible;"/>
					</clipPath>
					<g id="XMLID_788_" class="st3">
						
							<rect id="XMLID_794_" x="315.7" y="336.4" transform="matrix(-0.8579 -0.5138 0.5138 -0.8579 803.5384 964.623)" class="st4" width="438.8" height="69.5"/>
						<line id="XMLID_793_" class="st5" x1="332.6" y1="282.3" x2="709.1" y2="507.8"/>
						<line id="XMLID_792_" class="st5" x1="339.8" y1="270.4" x2="716.2" y2="495.9"/>
						<line id="XMLID_791_" class="st5" x1="346.9" y1="258.5" x2="723.4" y2="483.9"/>
						<line id="XMLID_790_" class="st5" x1="354.1" y1="246.5" x2="730.5" y2="472"/>
						<line id="XMLID_789_" class="st5" x1="361.2" y1="234.6" x2="737.7" y2="460.1"/>
					</g>
					<g id="XMLID_781_" class="st3">
						
							<rect id="XMLID_787_" x="280" y="396.1" transform="matrix(-0.8579 -0.5138 0.5138 -0.8579 706.4916 1057.1057)" class="st4" width="438.8" height="69.5"/>
						<line id="XMLID_786_" class="st5" x1="296.9" y1="342" x2="673.4" y2="567.5"/>
						<line id="XMLID_785_" class="st5" x1="304" y1="330" x2="680.5" y2="555.5"/>
						<line id="XMLID_784_" class="st5" x1="311.2" y1="318.1" x2="687.7" y2="543.6"/>
						<line id="XMLID_783_" class="st5" x1="318.3" y1="306.2" x2="694.8" y2="531.7"/>
						<line id="XMLID_782_" class="st5" x1="325.5" y1="294.2" x2="702" y2="519.7"/>
					</g>
					<g id="XMLID_773_" class="st3">
						
							<rect id="XMLID_780_" x="244.3" y="455.7" transform="matrix(-0.8579 -0.5138 0.5138 -0.8579 609.4448 1149.5885)" class="st4" width="438.8" height="69.5"/>
						<line id="XMLID_779_" class="st5" x1="261.2" y1="401.6" x2="637.6" y2="627.1"/>
						<line id="XMLID_778_" class="st5" x1="268.3" y1="389.7" x2="644.8" y2="615.2"/>
						<line id="XMLID_777_" class="st5" x1="275.5" y1="377.8" x2="651.9" y2="603.3"/>
						<line id="XMLID_776_" class="st5" x1="282.6" y1="365.8" x2="659.1" y2="591.3"/>
						<path id="XMLID_775_" class="st5" d="M666.2,579.4"/>
						<path id="XMLID_774_" class="st5" d="M289.8,353.9"/>
					</g>
					<g id="XMLID_766_" class="st3">
						
							<rect id="XMLID_772_" x="-96.4" y="170.6" transform="matrix(-0.8579 -0.5138 0.5138 -0.8579 122.9255 444.7403)" class="st4" width="438.8" height="69.5"/>
						<line id="XMLID_771_" class="st5" x1="-79.6" y1="116.5" x2="296.9" y2="342"/>
						<line id="XMLID_770_" class="st5" x1="-72.4" y1="104.6" x2="304" y2="330"/>
						<line id="XMLID_769_" class="st5" x1="-65.3" y1="92.6" x2="311.2" y2="318.1"/>
						<line id="XMLID_768_" class="st5" x1="-58.1" y1="80.7" x2="318.3" y2="306.2"/>
						<line id="XMLID_767_" class="st5" x1="-51" y1="68.8" x2="325.5" y2="294.2"/>
					</g>
					<g id="XMLID_759_" class="st3">
						
							<rect id="XMLID_765_" x="-132.2" y="230.3" transform="matrix(-0.8579 -0.5138 0.5138 -0.8579 25.8787 537.223)" class="st4" width="438.8" height="69.5"/>
						<line id="XMLID_764_" class="st5" x1="-115.3" y1="176.2" x2="261.2" y2="401.6"/>
						<line id="XMLID_763_" class="st5" x1="-108.1" y1="164.2" x2="268.3" y2="389.7"/>
						<line id="XMLID_762_" class="st5" x1="-101" y1="152.3" x2="275.5" y2="377.8"/>
						<line id="XMLID_761_" class="st5" x1="-93.9" y1="140.4" x2="282.6" y2="365.8"/>
						<line id="XMLID_760_" class="st5" x1="-86.7" y1="128.4" x2="289.8" y2="353.9"/>
					</g>
				</g>
			</g>
		</g>
	</g>
</g>
<g id="XMLID_21_">
	<path id="XMLID_22_" class="st6" d="M685.9,335.5c0,7-1.5,13.7-4.5,20.1c-3,6.3-7.2,11.9-12.6,16.8c-5.4,4.9-11.8,8.7-19.2,11.6
		s-15.6,4.3-24.5,4.3c-8,0-15.2-0.5-21.6-1.4c-6.4-0.9-12.4-2.4-18-4.5c-5.6-2-11-4.7-16.2-7.9c-5.2-3.2-10.5-7.1-16.1-11.6
		l25.4-26.1c7.4,6.3,14.6,10.7,21.7,13.3c7.1,2.6,14.8,3.9,23.1,3.9c3.4,0,6.6-0.5,9.6-1.5c3-1,5.6-2.4,7.9-4.1
		c2.2-1.7,4-3.8,5.3-6.1c1.3-2.3,2-4.9,2-7.7c0-3-0.5-5.6-1.6-8c-1.1-2.3-3-4.6-5.8-6.8c-2.8-2.2-6.6-4.4-11.6-6.7
		c-4.9-2.3-11.2-4.8-18.9-7.6c-6.8-2.5-13.3-5.4-19.5-8.6c-6.2-3.2-11.7-7.1-16.4-11.6c-4.7-4.5-8.5-9.9-11.3-16
		c-2.9-6.1-4.3-13.3-4.3-21.6c0-8,1.6-15.3,4.7-22.1c3.2-6.7,7.5-12.5,12.9-17.3c5.5-4.8,11.9-8.5,19.2-11.1c7.3-2.7,15.2-4,23.7-4
		c14.2,0,26.1,1.9,35.8,5.6c9.7,3.8,18.3,9.2,25.9,16.4l-25,25.6c-4.6-4.5-9.8-8-15.5-10.4c-5.7-2.4-12.4-3.6-20.1-3.6
		c-3.5,0-6.8,0.5-9.8,1.6c-3,1.1-5.6,2.5-7.7,4.3c-2.2,1.8-3.9,3.9-5.2,6.3c-1.3,2.4-2,5-2,7.6c0,3,0.6,5.7,1.8,8.1
		c1.2,2.4,3.3,4.8,6.2,7c2.9,2.3,6.8,4.5,11.7,6.8c4.9,2.3,10.9,4.7,18.1,7.4c9.2,3.3,17.2,6.9,23.8,10.8c6.6,3.9,12,8.2,16.2,12.9
		s7.2,10,9.2,15.8C684.9,321.6,685.9,328.2,685.9,335.5z"/>
	<path id="XMLID_24_" class="st6" d="M833.3,384.8h-122V197.3h122v30h-86.9v44.8h85.7v29.3h-85.7v51.6h86.9V384.8z"/>
	<path id="XMLID_26_" class="st6" d="M987.9,229.7h-51.1v155.1h-36.3V229.7h-51.1v-32.4h138.4V229.7z"/>
</g>
<path id="XMLID_483_" class="st0" d="M220.5,464.7L220.5,464.7l-67.4,41.4c-9.9,6.1-22.8,3-28.9-6.9L11.1,314.9
	C5,305,8.1,292,18,286l117.3-72l0.1-0.1l0.2,39.3c-4.3,3.5-7,8.8-6.8,14.8c0.2,7.6-2.6,12-4.5,13.1c-2.8,1.7-9.6,1.9-13.7,2l-1,0
	c-9,0.3-19.3,0.6-29.4,5.4c-13.7,6.5-33,26.1-26.7,51.3c1.2,4.8,4.2,8.9,8.5,11.4c2.9,1.8,6.2,2.7,9.6,2.7c1.5,0,3-0.2,4.5-0.6
	c1.9-0.5,3.6-1.2,5.2-2.2c6.9-4.3,10.3-12.4,8.3-20.3c-0.8-3,4.6-7.9,6.6-8.8c3.1-1.5,9-1.6,14.6-1.8l1,0c8-0.2,16.3-0.8,24.3-3.8
	l0.2,28c-6.1,0.6-12.4,1.8-18.7,4.8c-13.7,6.5-33,26.1-26.7,51.3c2.1,8.4,9.7,14.1,18,14.1c1.5,0,3-0.2,4.5-0.5
	c1.9-0.5,3.6-1.2,5.2-2.2c6.9-4.2,10.3-12.4,8.3-20.3c-0.8-3,4.6-7.9,6.6-8.8c0.8-0.4,1.9-0.7,3-0.9l0.2,28.3c0,4.3,0.7,8.5,2,12.4
	c-8.4,9.6-14.4,23.1-10.5,38.8c1.2,4.8,4.2,8.9,8.5,11.4c2.9,1.8,6.2,2.7,9.5,2.7c1.5,0,3-0.2,4.5-0.6c1.9-0.5,3.6-1.2,5.2-2.2
	c5.6-3.4,8.9-9.4,8.9-15.8c0-1.5-0.2-3-0.6-4.5c-0.3-1.1,0.3-2.4,1.1-3.7c3.8,1.2,7.7,1.8,11.9,1.8h0.2l20.1-0.1
	c1.5,1.3,3.2,2.4,4.9,3.5L220.5,464.7z"/>
<polygon id="XMLID_454_" class="st1" points="371.7,367.1 360.3,351 338.8,338 319,335.5 "/>
<polygon id="XMLID_447_" class="st1" points="387,392.6 390.1,393 380.3,379.1 304.2,333.6 287.5,331.6 289.2,334 "/>
<g id="XMLID_443_">
	<polygon id="XMLID_445_" class="st1" points="352.9,388.3 372.4,390.8 297.6,345.8 309.2,362.2 	"/>
	<polygon id="XMLID_444_" class="st1" points="317.7,374.1 325.3,384.9 338.3,386.5 	"/>
</g>
<g id="XMLID_1_">
	<path id="XMLID_2_" class="st6" d="M584.2,498.6c-1.3,0.8-2.7,1.4-4.4,1.8c-1.7,0.4-3.3,0.6-5,0.6c-2.9,0-5.4-0.4-7.4-1.1
		c-2-0.7-3.6-1.8-4.8-3.3c-1.2-1.5-2.1-3.4-2.6-5.7c-0.5-2.3-0.8-5-0.8-8.1v-21.9h-6.6v-5.6c4-1.7,7.3-4.1,9.8-7.4s4.2-7.5,5.1-12.8
		h4.1v14.6h12.6v11.2h-12.6v22.7c0,1.3,0.2,2.3,0.5,3.1c0.3,0.8,0.7,1.4,1.3,1.9c0.5,0.5,1.1,0.8,1.8,1c0.7,0.2,1.4,0.3,2.1,0.3
		c1,0,2.2-0.2,3.5-0.5c1.4-0.3,2.6-0.9,3.5-1.7V498.6z"/>
	<path id="XMLID_4_" class="st6" d="M638.8,499.7h-12.4v-29.9c0-1.8-0.3-3.4-0.8-4.7c-0.5-1.4-1.3-2.5-2.2-3.4
		c-0.9-0.9-1.9-1.6-3.1-2c-1.2-0.4-2.4-0.6-3.7-0.6c-1.9,0-3.7,0.3-5.5,0.9c-1.7,0.6-3.4,1.4-5,2.4v37.3h-12.4v-71.7H606l0.1,24.6
		c1.8-1.4,4-2.5,6.4-3.2c2.4-0.7,4.8-1,7-1c2.6,0,5,0.4,7.3,1.3c2.3,0.8,4.4,2.1,6.1,3.8c1.8,1.7,3.2,3.8,4.2,6.4
		c1,2.6,1.6,5.6,1.6,9.1V499.7z"/>
	<path id="XMLID_6_" class="st6" d="M701.9,474.7c0,0.8,0,1.6-0.1,2.5c-0.1,0.9-0.2,1.8-0.3,2.7h-39.9c0.5,1.4,1.1,2.8,1.9,4.1
		c0.8,1.3,1.9,2.4,3.1,3.4c1.2,1,2.6,1.7,4.1,2.2c1.5,0.5,3.2,0.8,5.1,0.8c2.2,0,4.5-0.4,6.7-1.2c2.2-0.8,4.1-1.8,5.6-3.2l7.9,7.9
		c-3.5,2.6-6.8,4.4-10.2,5.5c-3.3,1.1-6.8,1.6-10.5,1.6c-3.7,0-7.2-0.7-10.5-2.1c-3.3-1.4-6.1-3.3-8.5-5.6c-2.4-2.4-4.3-5.1-5.7-8.3
		c-1.4-3.2-2.1-6.6-2.1-10.2s0.7-7,2.1-10.2c1.4-3.2,3.3-6,5.7-8.3c2.4-2.4,5.2-4.2,8.5-5.6c3.2-1.4,6.7-2.1,10.4-2.1
		c3.5,0,6.9,0.6,10.1,1.9c3.2,1.3,6.1,3.1,8.6,5.4c2.5,2.3,4.4,5.1,5.9,8.3C701.1,467.3,701.9,470.8,701.9,474.7z M688.8,469.8
		c-1-3.2-2.7-5.7-5.2-7.7c-2.5-1.9-5.3-2.9-8.5-2.9c-3.1,0-5.9,1-8.4,2.9c-2.5,1.9-4.2,4.5-5.2,7.7H688.8z"/>
	<path id="XMLID_9_" class="st6" d="M786.8,459.6h-5.3c1.3,2.6,2,5.4,2,8.3c0,2.2-0.4,4.4-1.3,6.5c-0.8,2.1-2,4-3.6,5.7
		c-1.6,1.7-3.4,3.2-5.7,4.4c-2.2,1.2-4.7,2-7.5,2.4c-1.9,0.3-3.3,0.7-4.3,1.3c-1,0.6-1.4,1.2-1.4,1.8c0,0.6,0.5,1.2,1.4,1.7
		c1,0.5,2.4,0.9,4.3,1c6.5,0.6,11.5,2.2,15,4.8c3.5,2.7,5.3,6.2,5.3,10.5c0,2.2-0.5,4.3-1.6,6.2c-1.1,1.9-2.7,3.5-4.7,4.9
		c-2,1.4-4.5,2.4-7.4,3.2c-2.9,0.7-6.1,1.1-9.6,1.1c-3.6,0-6.9-0.4-9.8-1.1c-2.9-0.8-5.4-1.8-7.5-3.2c-2.1-1.4-3.6-3-4.7-4.9
		c-1.1-1.9-1.6-4-1.6-6.3c0-3.5,1-6.4,3-8.7s5.2-4.1,9.7-5.2c-1.4-0.5-2.4-1.2-3-2.1s-0.9-1.8-0.8-2.7c0.1-0.9,0.4-1.8,1.2-2.6
		c0.7-0.8,1.7-1.5,3.1-1.9c-1.5-0.7-2.9-1.6-4.3-2.7c-1.4-1.1-2.6-2.4-3.7-3.8c-1.1-1.4-2-3.1-2.6-4.8c-0.6-1.8-1-3.7-1-5.7
		c0-2.7,0.6-5.2,1.7-7.6c1.2-2.4,2.7-4.4,4.7-6.2c2-1.8,4.2-3.1,6.8-4.1c2.6-1,5.3-1.5,8.2-1.5c2.8,0,5.4,0.4,7.9,1.3h17.1V459.6z
		 M773.4,508.3c0-2-1-3.5-3.1-4.4c-2-0.9-4.7-1.4-7.9-1.4c-3.4,0-6.2,0.5-8.1,1.5c-2,1-3,2.4-3,4.3c0,2,1,3.4,3.1,4.4
		c2.1,1,4.7,1.5,8,1.5c3.3,0,6-0.5,8-1.4S773.4,510.3,773.4,508.3z M771,467.9c0-1.3-0.2-2.4-0.7-3.5c-0.5-1.1-1.1-2.1-2-2.9
		c-0.8-0.8-1.8-1.5-2.9-2c-1.1-0.5-2.3-0.7-3.6-0.7c-1.3,0-2.4,0.2-3.5,0.7c-1.1,0.5-2,1.2-2.9,2c-0.8,0.8-1.5,1.8-2,2.9
		c-0.5,1.1-0.7,2.3-0.7,3.5c0,1.3,0.2,2.5,0.7,3.6c0.5,1.1,1.1,2.1,2,2.9c0.8,0.8,1.8,1.5,2.9,2c1.1,0.5,2.3,0.7,3.5,0.7
		c1.3,0,2.4-0.2,3.6-0.7c1.1-0.5,2.1-1.2,2.9-2c0.8-0.8,1.5-1.8,2-2.9C770.8,470.4,771,469.2,771,467.9z"/>
	<path id="XMLID_13_" class="st6" d="M835.3,499.7h-12.4v-2.7c-2.2,1.5-4.5,2.5-7,3.1c-2.5,0.6-5,0.9-7.6,0.9
		c-2.4,0-4.6-0.4-6.6-1.1c-2-0.7-3.7-1.8-5.1-3.1c-1.4-1.4-2.6-3-3.3-4.8c-0.8-1.8-1.2-3.9-1.2-6.1c0-2.8,0.6-5.3,1.9-7.4
		c1.2-2.1,2.9-3.9,5.1-5.3c2.1-1.4,4.6-2.5,7.5-3.2c2.9-0.7,5.9-1,9.2-1h7.2c0-2.9-1-5.3-2.9-7c-1.9-1.7-4.6-2.6-8.2-2.6
		c-1.7,0-3.5,0.3-5.4,1c-1.8,0.6-3.7,1.8-5.5,3.5l-7.3-7.4c2.6-2.5,5.7-4.5,9.2-5.9c3.5-1.4,7.1-2.1,10.8-2.1c3.5,0,6.5,0.5,9.2,1.6
		c2.7,1.1,4.9,2.5,6.5,4.2c2.2,2.2,3.7,4.6,4.6,7.3s1.3,6.2,1.3,10.4V499.7z M822.9,487.3V478h-5.7c-1.7,0-3.4,0.1-4.9,0.3
		c-1.5,0.2-2.9,0.6-4,1.2c-1.1,0.5-2,1.3-2.7,2.1c-0.7,0.9-1,1.9-1,3.1c0,1.7,0.7,3.1,2,4.2c1.4,1.1,3.1,1.6,5.2,1.6
		c1.8,0,3.7-0.3,5.5-0.9C819.2,489.2,821,488.4,822.9,487.3z"/>
	<path id="XMLID_16_" class="st6" d="M920.9,499.7h-12.4v-29.8c0-3.5-0.9-6.2-2.5-8c-1.7-1.8-3.8-2.7-6.3-2.7
		c-1.9,0-3.7,0.3-5.4,0.9c-1.7,0.6-3.4,1.6-5,3c0.5,2,0.8,4.3,0.8,6.8v29.8h-12.4v-29.8c0-3.5-0.9-6.2-2.5-8
		c-1.7-1.8-3.8-2.7-6.2-2.7c-1.9,0-3.6,0.3-5,1c-1.4,0.7-2.9,1.7-4.5,3.2v36.4h-12.4v-50h12.4l0,3.7c1.6-1.5,3.4-2.7,5.5-3.6
		c2.1-0.9,4.3-1.4,6.4-1.4c2.4,0,4.9,0.5,7.3,1.6c2.5,1.1,4.6,2.7,6.4,4.8c2.6-2.3,5.2-3.9,7.9-4.9c2.7-1,5.6-1.5,8.7-1.5
		c2.6,0,5.1,0.4,7.4,1.2c2.3,0.8,4.4,2,6.1,3.7c1.7,1.7,3.1,3.9,4.2,6.5c1,2.6,1.6,5.8,1.6,9.5V499.7z"/>
	<path id="XMLID_18_" class="st6" d="M983.9,474.7c0,0.8,0,1.6-0.1,2.5c-0.1,0.9-0.2,1.8-0.3,2.7h-39.9c0.5,1.4,1.1,2.8,1.9,4.1
		c0.8,1.3,1.9,2.4,3.1,3.4c1.2,1,2.6,1.7,4.1,2.2c1.5,0.5,3.2,0.8,5.1,0.8c2.2,0,4.5-0.4,6.7-1.2c2.2-0.8,4.1-1.8,5.6-3.2l7.9,7.9
		c-3.5,2.6-6.8,4.4-10.2,5.5c-3.3,1.1-6.8,1.6-10.5,1.6c-3.7,0-7.2-0.7-10.5-2.1c-3.3-1.4-6.1-3.3-8.5-5.6c-2.4-2.4-4.3-5.1-5.7-8.3
		c-1.4-3.2-2.1-6.6-2.1-10.2s0.7-7,2.1-10.2c1.4-3.2,3.3-6,5.7-8.3c2.4-2.4,5.2-4.2,8.5-5.6c3.2-1.4,6.7-2.1,10.4-2.1
		c3.5,0,6.9,0.6,10.1,1.9c3.2,1.3,6.1,3.1,8.6,5.4c2.5,2.3,4.4,5.1,5.9,8.3C983.2,467.3,983.9,470.8,983.9,474.7z M970.9,469.8
		c-1-3.2-2.7-5.7-5.2-7.7c-2.5-1.9-5.3-2.9-8.5-2.9c-3.1,0-5.9,1-8.4,2.9c-2.5,1.9-4.2,4.5-5.2,7.7H970.9z"/>
</g>
</svg>
