<?xml version="1.0" encoding="utf-8"?>
<!-- Generator: Adobe Illustrator 19.0.0, SVG Export Plug-In . SVG Version: 6.00 Build 0)  -->
<svg version="1.1" id="Layer_1" xmlns="http://www.w3.org/2000/svg" xmlns:xlink="http://www.w3.org/1999/xlink" x="0px" y="0px"
	 viewBox="-459 191 1000 700" style="enable-background:new -459 191 1000 700;" xml:space="preserve">
<style type="text/css">
	.st0{fill:#FFCD00;}
	.st1{fill:#21409A;}
	.st2{fill:#ED1C24;}
	.st3{clip-path:url(#SVGID_2_);}
	.st4{fill:none;}
	.st5{fill:none;stroke:#21409A;stroke-width:3.9728;stroke-miterlimit:10;}
	.st6{clip-path:url(#SVGID_4_);}
	.st7{clip-path:url(#SVGID_6_);}
	.st8{clip-path:url(#SVGID_8_);}
	.st9{clip-path:url(#SVGID_10_);}
	.st10{fill:#FFFFFF;}
</style>
<g id="XMLID_490_">
	<g id="XMLID_491_">
		<g id="XMLID_493_">
			<g id="XMLID_494_">
				<path id="XMLID_803_" class="st0" d="M-323,499.4c-7.8,3.5-16.3,4.1-24.5,4.3h-1.1c-6.7,0.2-13.1,0.4-17.6,2.5
					c-3.4,1.6-12.7,9.1-10.6,17.4c1.2,4.7-0.8,9.6-4.9,12.1c-1,0.6-2,1-3.1,1.3c-2.9,0.7-5.9,0.3-8.4-1.3c-2.5-1.5-4.3-3.9-5-6.8
					c-5.2-20.8,11.1-37.3,22.6-42.7c8.7-4.1,18.1-4.4,26.4-4.6h1c7-0.2,13.2-0.6,17.3-3.1c3.8-2.2,6.5-7,7.6-12.9L-323,499.4z"/>
				<path id="XMLID_802_" class="st0" d="M-322.6,565.4c-2.3,0.4-4.4,0.9-6.2,1.7c-3.4,1.6-12.7,9.1-10.7,17.4
					c1.2,4.7-0.8,9.6-4.9,12.1c-1,0.6-2,1-3.1,1.3c-5.9,1.5-11.9-2.2-13.4-8.1c-5.2-20.8,11.1-37.3,22.6-42.7
					c5.1-2.4,10.4-3.5,15.5-4L-322.6,565.4z"/>
				<path id="XMLID_801_" class="st0" d="M-300.7,636.9c-1.4,2.5-2.1,5.4-1.4,8.4c1.2,4.7-0.8,9.6-4.9,12.1c-1,0.6-2,1-3.1,1.3
					c-2.9,0.7-5.8,0.3-8.4-1.2c-2.5-1.5-4.3-3.9-5-6.8c-2.9-11.5,0.8-21.7,6.7-29.4C-313.1,627.9-307.5,633.3-300.7,636.9
					L-300.7,636.9z"/>
				<g id="XMLID_795_">
					<path id="XMLID_797_" class="st1" d="M6.1,478.4l-119.8-71.8c-3.4-2-7.1-3-10.8-3c-7.1,0-14.1,3.6-18.1,10.2l-111.1,185.6
						c-5.9,9.9-2.7,22.9,7.2,28.8l119.8,71.8c4.8,2.9,10.5,3.7,15.9,2.4c5.5-1.4,10-4.8,12.9-9.6L13.2,507.3
						C19.3,497.2,16,484.3,6.1,478.4z M-137.9,582.9l-49.6-69.9l85,10.7l49.5,69.9L-137.9,582.9z"/>
					<path id="XMLID_796_" class="st2" d="M-122.4,383.8v0.3c-4-0.2-8,0.2-12,1.2c-10.5,2.6-19.4,9.2-24.9,18.5l-19.5,32.6
						l-81.5,0.5c-12,0.1-21.8,10-21.7,22c0.1,12,10,21.8,22,21.7l55-0.3l-15.3,25.6L-260,506c-12,0.1-21.8,9.9-21.7,22
						c0.1,12,10,21.8,22,21.7l13.1-0.1l-23.8,39.7c-6.1,10.2-7.2,22.1-4,32.7h-7.3c-5.6,0-10.9-2.1-14.9-6.1
						c-4-3.9-6.2-9.2-6.2-14.8l-1.3-216.2c-0.1-11.6,9.3-21.1,20.9-21.2l139.7-0.8h0.1C-131.9,362.9-122.5,372.3-122.4,383.8z"/>
				</g>
				<g id="XMLID_757_">
					<g>
						<defs>
							<line id="SVGID_1_" x1="-135.8" y1="579.4" x2="-60.9" y2="588.8"/>
						</defs>
						<clipPath id="SVGID_2_">
							<use xlink:href="#SVGID_1_"  style="overflow:visible;"/>
						</clipPath>
						<g id="XMLID_788_" class="st3">
							
								<rect id="XMLID_794_" x="-143.2" y="527.5" transform="matrix(0.8579 0.5138 -0.5138 0.8579 299.725 40.7577)" class="st4" width="438.8" height="69.5"/>
							<line id="XMLID_793_" class="st5" x1="-126.4" y1="473.3" x2="250.1" y2="698.8"/>
							<line id="XMLID_792_" class="st5" x1="-119.2" y1="461.4" x2="257.2" y2="686.9"/>
							<line id="XMLID_791_" class="st5" x1="-112.1" y1="449.5" x2="264.4" y2="674.9"/>
							<line id="XMLID_790_" class="st5" x1="-104.9" y1="437.5" x2="271.5" y2="663"/>
							<line id="XMLID_789_" class="st5" x1="-97.8" y1="425.6" x2="278.7" y2="651.1"/>
						</g>
					</g>
					<g>
						<defs>
							<line id="SVGID_3_" x1="-135.8" y1="579.4" x2="-60.9" y2="588.8"/>
						</defs>
						<clipPath id="SVGID_4_">
							<use xlink:href="#SVGID_3_"  style="overflow:visible;"/>
						</clipPath>
						<g id="XMLID_781_" class="st6">
							
								<rect id="XMLID_787_" x="-179" y="587.1" transform="matrix(0.8579 0.5138 -0.5138 0.8579 325.2731 67.5941)" class="st4" width="438.8" height="69.5"/>
							<line id="XMLID_786_" class="st5" x1="-162.1" y1="533" x2="214.4" y2="758.5"/>
							<line id="XMLID_785_" class="st5" x1="-155" y1="521" x2="221.5" y2="746.5"/>
							<line id="XMLID_784_" class="st5" x1="-147.8" y1="509.1" x2="228.7" y2="734.6"/>
							<line id="XMLID_783_" class="st5" x1="-140.7" y1="497.2" x2="235.8" y2="722.7"/>
							<line id="XMLID_782_" class="st5" x1="-133.5" y1="485.2" x2="243" y2="710.7"/>
						</g>
					</g>
					<g>
						<defs>
							<line id="SVGID_5_" x1="-135.8" y1="579.4" x2="-60.9" y2="588.8"/>
						</defs>
						<clipPath id="SVGID_6_">
							<use xlink:href="#SVGID_5_"  style="overflow:visible;"/>
						</clipPath>
						<g id="XMLID_773_" class="st7">
							
								<rect id="XMLID_780_" x="-214.8" y="646.8" transform="matrix(0.8579 0.5138 -0.5138 0.8579 350.8579 94.469)" class="st4" width="438.8" height="69.5"/>
							<line id="XMLID_779_" class="st5" x1="-197.8" y1="592.6" x2="178.6" y2="818.1"/>
							<line id="XMLID_778_" class="st5" x1="-190.7" y1="580.7" x2="185.8" y2="806.2"/>
							<line id="XMLID_777_" class="st5" x1="-183.5" y1="568.8" x2="192.9" y2="794.3"/>
							<line id="XMLID_776_" class="st5" x1="-176.4" y1="556.8" x2="200.1" y2="782.3"/>
							<path id="XMLID_775_" class="st5" d="M207.2,770.4"/>
							<path id="XMLID_774_" class="st5" d="M-169.2,544.9"/>
						</g>
					</g>
					<g>
						<defs>
							<line id="SVGID_7_" x1="-135.8" y1="579.4" x2="-60.9" y2="588.8"/>
						</defs>
						<clipPath id="SVGID_8_">
							<use xlink:href="#SVGID_7_"  style="overflow:visible;"/>
						</clipPath>
						<g id="XMLID_766_" class="st8">
							
								<rect id="XMLID_772_" x="-555.5" y="361.6" transform="matrix(0.8579 0.5138 -0.5138 0.8579 155.9027 229.0049)" class="st4" width="438.8" height="69.5"/>
							<line id="XMLID_771_" class="st5" x1="-538.6" y1="307.5" x2="-162.1" y2="533"/>
							<line id="XMLID_770_" class="st5" x1="-531.4" y1="295.6" x2="-155" y2="521"/>
							<line id="XMLID_769_" class="st5" x1="-524.3" y1="283.6" x2="-147.8" y2="509.1"/>
							<line id="XMLID_768_" class="st5" x1="-517.1" y1="271.7" x2="-140.7" y2="497.2"/>
							<line id="XMLID_767_" class="st5" x1="-510" y1="259.8" x2="-133.5" y2="485.2"/>
						</g>
					</g>
					<g>
						<defs>
							<line id="SVGID_9_" x1="-135.8" y1="579.4" x2="-60.9" y2="588.8"/>
						</defs>
						<clipPath id="SVGID_10_">
							<use xlink:href="#SVGID_9_"  style="overflow:visible;"/>
						</clipPath>
						<g id="XMLID_759_" class="st9">
							
								<rect id="XMLID_765_" x="-591.1" y="421.3" transform="matrix(0.8579 0.5138 -0.5138 0.8579 181.4893 255.8045)" class="st4" width="438.8" height="69.5"/>
							<line id="XMLID_764_" class="st5" x1="-574.3" y1="367.2" x2="-197.8" y2="592.6"/>
							<line id="XMLID_763_" class="st5" x1="-567.1" y1="355.2" x2="-190.7" y2="580.7"/>
							<line id="XMLID_762_" class="st5" x1="-560" y1="343.3" x2="-183.5" y2="568.8"/>
							<line id="XMLID_761_" class="st5" x1="-552.9" y1="331.4" x2="-176.4" y2="556.8"/>
							<line id="XMLID_760_" class="st5" x1="-545.7" y1="319.4" x2="-169.2" y2="544.9"/>
						</g>
					</g>
				</g>
			</g>
		</g>
	</g>
</g>
<g id="XMLID_21_">
	<path id="XMLID_22_" class="st10" d="M226.9,526.5c0,7-1.5,13.7-4.5,20.1c-3,6.3-7.2,11.9-12.6,16.8c-5.4,4.9-11.8,8.7-19.2,11.6
		s-15.6,4.3-24.5,4.3c-8,0-15.2-0.5-21.6-1.4c-6.4-0.9-12.4-2.4-18-4.5c-5.6-2-11-4.7-16.2-7.9c-5.2-3.2-10.5-7.1-16.1-11.6
		l25.4-26.1c7.4,6.3,14.6,10.7,21.7,13.3c7.1,2.6,14.8,3.9,23.1,3.9c3.4,0,6.6-0.5,9.6-1.5s5.6-2.4,7.9-4.1c2.2-1.7,4-3.8,5.3-6.1
		c1.3-2.3,2-4.9,2-7.7c0-3-0.5-5.6-1.6-8c-1.1-2.3-3-4.6-5.8-6.8c-2.8-2.2-6.6-4.4-11.6-6.7c-4.9-2.3-11.2-4.8-18.9-7.6
		c-6.8-2.5-13.3-5.4-19.5-8.6s-11.7-7.1-16.4-11.6s-8.5-9.9-11.3-16c-2.9-6.1-4.3-13.3-4.3-21.6c0-8,1.6-15.3,4.7-22.1
		c3.2-6.7,7.5-12.5,12.9-17.3c5.5-4.8,11.9-8.5,19.2-11.1c7.3-2.7,15.2-4,23.7-4c14.2,0,26.1,1.9,35.8,5.6
		c9.7,3.8,18.3,9.2,25.9,16.4l-25,25.6c-4.6-4.5-9.8-8-15.5-10.4c-5.7-2.4-12.4-3.6-20.1-3.6c-3.5,0-6.8,0.5-9.8,1.6
		c-3,1.1-5.6,2.5-7.7,4.3c-2.2,1.8-3.9,3.9-5.2,6.3c-1.3,2.4-2,5-2,7.6c0,3,0.6,5.7,1.8,8.1c1.2,2.4,3.3,4.8,6.2,7
		c2.9,2.3,6.8,4.5,11.7,6.8s10.9,4.7,18.1,7.4c9.2,3.3,17.2,6.9,23.8,10.8s12,8.2,16.2,12.9s7.2,10,9.2,15.8
		C225.9,512.6,226.9,519.2,226.9,526.5z"/>
	<path id="XMLID_24_" class="st10" d="M374.3,575.8h-122V388.3h122v30h-86.9v44.8h85.7v29.3h-85.7V544h86.9V575.8z"/>
	<path id="XMLID_26_" class="st10" d="M528.9,420.7h-51.1v155.1h-36.3V420.7h-51.1v-32.4h138.4L528.9,420.7L528.9,420.7z"/>
</g>
<path id="XMLID_483_" class="st0" d="M-238.5,655.7L-238.5,655.7l-67.4,41.4c-9.9,6.1-22.8,3-28.9-6.9l-113.1-184.3
	c-6.1-9.9-3-22.9,6.9-28.9l117.3-72l0.1-0.1l0.2,39.3c-4.3,3.5-7,8.8-6.8,14.8c0.2,7.6-2.6,12-4.5,13.1c-2.8,1.7-9.6,1.9-13.7,2h-1
	c-9,0.3-19.3,0.6-29.4,5.4c-13.7,6.5-33,26.1-26.7,51.3c1.2,4.8,4.2,8.9,8.5,11.4c2.9,1.8,6.2,2.7,9.6,2.7c1.5,0,3-0.2,4.5-0.6
	c1.9-0.5,3.6-1.2,5.2-2.2c6.9-4.3,10.3-12.4,8.3-20.3c-0.8-3,4.6-7.9,6.6-8.8c3.1-1.5,9-1.6,14.6-1.8h1c8-0.2,16.3-0.8,24.3-3.8
	l0.2,28c-6.1,0.6-12.4,1.8-18.7,4.8c-13.7,6.5-33,26.1-26.7,51.3c2.1,8.4,9.7,14.1,18,14.1c1.5,0,3-0.2,4.5-0.5
	c1.9-0.5,3.6-1.2,5.2-2.2c6.9-4.2,10.3-12.4,8.3-20.3c-0.8-3,4.6-7.9,6.6-8.8c0.8-0.4,1.9-0.7,3-0.9l0.2,28.3c0,4.3,0.7,8.5,2,12.4
	c-8.4,9.6-14.4,23.1-10.5,38.8c1.2,4.8,4.2,8.9,8.5,11.4c2.9,1.8,6.2,2.7,9.5,2.7c1.5,0,3-0.2,4.5-0.6c1.9-0.5,3.6-1.2,5.2-2.2
	c5.6-3.4,8.9-9.4,8.9-15.8c0-1.5-0.2-3-0.6-4.5c-0.3-1.1,0.3-2.4,1.1-3.7c3.8,1.2,7.7,1.8,11.9,1.8h0.2l20.1-0.1
	c1.5,1.3,3.2,2.4,4.9,3.5L-238.5,655.7z"/>
<polygon id="XMLID_454_" class="st1" points="-87.3,558.1 -98.7,542 -120.2,529 -140,526.5 "/>
<polygon id="XMLID_447_" class="st1" points="-72,583.6 -68.9,584 -78.7,570.1 -154.8,524.6 -171.5,522.6 -169.8,525 "/>
<g id="XMLID_443_">
	<polygon id="XMLID_445_" class="st1" points="-106.1,579.3 -86.6,581.8 -161.4,536.8 -149.8,553.2 	"/>
	<polygon id="XMLID_444_" class="st1" points="-141.3,565.1 -133.7,575.9 -120.7,577.5 	"/>
</g>
<g id="XMLID_1_">
	<path id="XMLID_2_" class="st10" d="M125.2,689.6c-1.3,0.8-2.7,1.4-4.4,1.8c-1.7,0.4-3.3,0.6-5,0.6c-2.9,0-5.4-0.4-7.4-1.1
		c-2-0.7-3.6-1.8-4.8-3.3s-2.1-3.4-2.6-5.7c-0.5-2.3-0.8-5-0.8-8.1v-21.9h-6.6v-5.6c4-1.7,7.3-4.1,9.8-7.4c2.5-3.3,4.2-7.5,5.1-12.8
		h4.1v14.6h12.6v11.2h-12.6v22.7c0,1.3,0.2,2.3,0.5,3.1c0.3,0.8,0.7,1.4,1.3,1.9c0.5,0.5,1.1,0.8,1.8,1s1.4,0.3,2.1,0.3
		c1,0,2.2-0.2,3.5-0.5c1.4-0.3,2.6-0.9,3.5-1.7L125.2,689.6L125.2,689.6z"/>
	<path id="XMLID_4_" class="st10" d="M179.8,690.7h-12.4v-29.9c0-1.8-0.3-3.4-0.8-4.7c-0.5-1.4-1.3-2.5-2.2-3.4s-1.9-1.6-3.1-2
		c-1.2-0.4-2.4-0.6-3.7-0.6c-1.9,0-3.7,0.3-5.5,0.9c-1.7,0.6-3.4,1.4-5,2.4v37.3h-12.4V619H147l0.1,24.6c1.8-1.4,4-2.5,6.4-3.2
		c2.4-0.7,4.8-1,7-1c2.6,0,5,0.4,7.3,1.3c2.3,0.8,4.4,2.1,6.1,3.8c1.8,1.7,3.2,3.8,4.2,6.4s1.6,5.6,1.6,9.1v30.7H179.8z"/>
	<path id="XMLID_6_" class="st10" d="M242.9,665.7c0,0.8,0,1.6-0.1,2.5s-0.2,1.8-0.3,2.7h-39.9c0.5,1.4,1.1,2.8,1.9,4.1
		c0.8,1.3,1.9,2.4,3.1,3.4c1.2,1,2.6,1.7,4.1,2.2s3.2,0.8,5.1,0.8c2.2,0,4.5-0.4,6.7-1.2s4.1-1.8,5.6-3.2l7.9,7.9
		c-3.5,2.6-6.8,4.4-10.2,5.5c-3.3,1.1-6.8,1.6-10.5,1.6s-7.2-0.7-10.5-2.1c-3.3-1.4-6.1-3.3-8.5-5.6c-2.4-2.4-4.3-5.1-5.7-8.3
		c-1.4-3.2-2.1-6.6-2.1-10.2s0.7-7,2.1-10.2c1.4-3.2,3.3-6,5.7-8.3c2.4-2.4,5.2-4.2,8.5-5.6c3.2-1.4,6.7-2.1,10.4-2.1
		c3.5,0,6.9,0.6,10.1,1.9c3.2,1.3,6.1,3.1,8.6,5.4s4.4,5.1,5.9,8.3C242.1,658.3,242.9,661.8,242.9,665.7z M229.8,660.8
		c-1-3.2-2.7-5.7-5.2-7.7c-2.5-1.9-5.3-2.9-8.5-2.9c-3.1,0-5.9,1-8.4,2.9s-4.2,4.5-5.2,7.7H229.8z"/>
	<path id="XMLID_9_" class="st10" d="M327.8,650.6h-5.3c1.3,2.6,2,5.4,2,8.3c0,2.2-0.4,4.4-1.3,6.5c-0.8,2.1-2,4-3.6,5.7
		c-1.6,1.7-3.4,3.2-5.7,4.4c-2.2,1.2-4.7,2-7.5,2.4c-1.9,0.3-3.3,0.7-4.3,1.3c-1,0.6-1.4,1.2-1.4,1.8s0.5,1.2,1.4,1.7
		c1,0.5,2.4,0.9,4.3,1c6.5,0.6,11.5,2.2,15,4.8c3.5,2.7,5.3,6.2,5.3,10.5c0,2.2-0.5,4.3-1.6,6.2c-1.1,1.9-2.7,3.5-4.7,4.9
		s-4.5,2.4-7.4,3.2c-2.9,0.7-6.1,1.1-9.6,1.1c-3.6,0-6.9-0.4-9.8-1.1c-2.9-0.8-5.4-1.8-7.5-3.2s-3.6-3-4.7-4.9
		c-1.1-1.9-1.6-4-1.6-6.3c0-3.5,1-6.4,3-8.7s5.2-4.1,9.7-5.2c-1.4-0.5-2.4-1.2-3-2.1c-0.6-0.9-0.9-1.8-0.8-2.7
		c0.1-0.9,0.4-1.8,1.2-2.6c0.7-0.8,1.7-1.5,3.1-1.9c-1.5-0.7-2.9-1.6-4.3-2.7c-1.4-1.1-2.6-2.4-3.7-3.8c-1.1-1.4-2-3.1-2.6-4.8
		c-0.6-1.8-1-3.7-1-5.7c0-2.7,0.6-5.2,1.7-7.6c1.2-2.4,2.7-4.4,4.7-6.2c2-1.8,4.2-3.1,6.8-4.1s5.3-1.5,8.2-1.5
		c2.8,0,5.4,0.4,7.9,1.3h17.1L327.8,650.6L327.8,650.6z M314.4,699.3c0-2-1-3.5-3.1-4.4c-2-0.9-4.7-1.4-7.9-1.4
		c-3.4,0-6.2,0.5-8.1,1.5c-2,1-3,2.4-3,4.3c0,2,1,3.4,3.1,4.4c2.1,1,4.7,1.5,8,1.5s6-0.5,8-1.4S314.4,701.3,314.4,699.3z M312,658.9
		c0-1.3-0.2-2.4-0.7-3.5c-0.5-1.1-1.1-2.1-2-2.9c-0.8-0.8-1.8-1.5-2.9-2c-1.1-0.5-2.3-0.7-3.6-0.7s-2.4,0.2-3.5,0.7s-2,1.2-2.9,2
		c-0.8,0.8-1.5,1.8-2,2.9c-0.5,1.1-0.7,2.3-0.7,3.5c0,1.3,0.2,2.5,0.7,3.6s1.1,2.1,2,2.9c0.8,0.8,1.8,1.5,2.9,2
		c1.1,0.5,2.3,0.7,3.5,0.7c1.3,0,2.4-0.2,3.6-0.7c1.1-0.5,2.1-1.2,2.9-2c0.8-0.8,1.5-1.8,2-2.9S312,660.2,312,658.9z"/>
	<path id="XMLID_13_" class="st10" d="M376.3,690.7h-12.4V688c-2.2,1.5-4.5,2.5-7,3.1c-2.5,0.6-5,0.9-7.6,0.9
		c-2.4,0-4.6-0.4-6.6-1.1c-2-0.7-3.7-1.8-5.1-3.1c-1.4-1.4-2.6-3-3.3-4.8c-0.8-1.8-1.2-3.9-1.2-6.1c0-2.8,0.6-5.3,1.9-7.4
		c1.2-2.1,2.9-3.9,5.1-5.3c2.1-1.4,4.6-2.5,7.5-3.2s5.9-1,9.2-1h7.2c0-2.9-1-5.3-2.9-7s-4.6-2.6-8.2-2.6c-1.7,0-3.5,0.3-5.4,1
		c-1.8,0.6-3.7,1.8-5.5,3.5l-7.3-7.4c2.6-2.5,5.7-4.5,9.2-5.9c3.5-1.4,7.1-2.1,10.8-2.1c3.5,0,6.5,0.5,9.2,1.6
		c2.7,1.1,4.9,2.5,6.5,4.2c2.2,2.2,3.7,4.6,4.6,7.3c0.9,2.7,1.3,6.2,1.3,10.4V690.7z M363.9,678.3V669h-5.7c-1.7,0-3.4,0.1-4.9,0.3
		s-2.9,0.6-4,1.2c-1.1,0.5-2,1.3-2.7,2.1c-0.7,0.9-1,1.9-1,3.1c0,1.7,0.7,3.1,2,4.2c1.4,1.1,3.1,1.6,5.2,1.6c1.8,0,3.7-0.3,5.5-0.9
		C360.2,680.2,362,679.4,363.9,678.3z"/>
	<path id="XMLID_16_" class="st10" d="M461.9,690.7h-12.4v-29.8c0-3.5-0.9-6.2-2.5-8c-1.7-1.8-3.8-2.7-6.3-2.7
		c-1.9,0-3.7,0.3-5.4,0.9c-1.7,0.6-3.4,1.6-5,3c0.5,2,0.8,4.3,0.8,6.8v29.8h-12.4v-29.8c0-3.5-0.9-6.2-2.5-8
		c-1.7-1.8-3.8-2.7-6.2-2.7c-1.9,0-3.6,0.3-5,1c-1.4,0.7-2.9,1.7-4.5,3.2v36.4h-12.4v-50h12.4v3.7c1.6-1.5,3.4-2.7,5.5-3.6
		c2.1-0.9,4.3-1.4,6.4-1.4c2.4,0,4.9,0.5,7.3,1.6c2.5,1.1,4.6,2.7,6.4,4.8c2.6-2.3,5.2-3.9,7.9-4.9s5.6-1.5,8.7-1.5
		c2.6,0,5.1,0.4,7.4,1.2c2.3,0.8,4.4,2,6.1,3.7c1.7,1.7,3.1,3.9,4.2,6.5c1,2.6,1.6,5.8,1.6,9.5L461.9,690.7L461.9,690.7z"/>
	<path id="XMLID_18_" class="st10" d="M524.9,665.7c0,0.8,0,1.6-0.1,2.5s-0.2,1.8-0.3,2.7h-39.9c0.5,1.4,1.1,2.8,1.9,4.1
		c0.8,1.3,1.9,2.4,3.1,3.4c1.2,1,2.6,1.7,4.1,2.2s3.2,0.8,5.1,0.8c2.2,0,4.5-0.4,6.7-1.2s4.1-1.8,5.6-3.2l7.9,7.9
		c-3.5,2.6-6.8,4.4-10.2,5.5c-3.3,1.1-6.8,1.6-10.5,1.6s-7.2-0.7-10.5-2.1c-3.3-1.4-6.1-3.3-8.5-5.6c-2.4-2.4-4.3-5.1-5.7-8.3
		c-1.4-3.2-2.1-6.6-2.1-10.2s0.7-7,2.1-10.2c1.4-3.2,3.3-6,5.7-8.3c2.4-2.4,5.2-4.2,8.5-5.6c3.2-1.4,6.7-2.1,10.4-2.1
		c3.5,0,6.9,0.6,10.1,1.9c3.2,1.3,6.1,3.1,8.6,5.4s4.4,5.1,5.9,8.3C524.2,658.3,524.9,661.8,524.9,665.7z M511.9,660.8
		c-1-3.2-2.7-5.7-5.2-7.7c-2.5-1.9-5.3-2.9-8.5-2.9c-3.1,0-5.9,1-8.4,2.9s-4.2,4.5-5.2,7.7H511.9z"/>
</g>
</svg>
